<svg width="1200" height="630" viewBox="0 0 1200 630" fill="none" xmlns="http://www.w3.org/2000/svg">
  <defs>
    <linearGradient id="bg" x1="0%" y1="0%" x2="100%" y2="100%">
      <stop offset="0%" style="stop-color:#fdf7f0"/>
      <stop offset="100%" style="stop-color:#f5e6d3"/>
    </linearGradient>
    <linearGradient id="accent" x1="0%" y1="0%" x2="100%" y2="0%">
      <stop offset="0%" style="stop-color:#0ea5e9"/>
      <stop offset="100%" style="stop-color:#0284c7"/>
    </linearGradient>
  </defs>

  <!-- Background -->
  <rect width="1200" height="630" fill="url(#bg)"/>

  <!-- Decorative elements -->
  <circle cx="1100" cy="100" r="200" fill="#0ea5e9" opacity="0.1"/>
  <circle cx="100" cy="530" r="150" fill="#0ea5e9" opacity="0.1"/>

  <!-- Main content area -->
  <rect x="60" y="60" width="1080" height="510" rx="24" fill="white" opacity="0.8"/>

  <!-- Icon/Logo area -->
  <rect x="100" y="120" width="80" height="80" rx="16" fill="url(#accent)"/>
  <text x="140" y="175" font-family="system-ui, sans-serif" font-size="40" fill="white" text-anchor="middle">S5</text>

  <!-- Title -->
  <text x="100" y="280" font-family="Georgia, serif" font-size="56" font-weight="bold" fill="#1a1a1a">
    Free SOCKS5 Proxy Checker
  </text>

  <!-- Subtitle -->
  <text x="100" y="350" font-family="system-ui, sans-serif" font-size="28" fill="#666666">
    Test 500+ proxies instantly with real-time results
  </text>

  <!-- Features -->
  <g fill="#0ea5e9" font-family="system-ui, sans-serif" font-size="20">
    <circle cx="120" cy="420" r="8"/>
    <text x="140" y="428" fill="#444444">Bulk Proxy Testing</text>

    <circle cx="380" cy="420" r="8"/>
    <text x="400" y="428" fill="#444444">IP Anonymity Score</text>

    <circle cx="640" cy="420" r="8"/>
    <text x="660" y="428" fill="#444444">WebRTC Leak Detection</text>

    <circle cx="920" cy="420" r="8"/>
    <text x="940" y="428" fill="#444444">Format Converter</text>
  </g>

  <!-- URL -->
  <text x="100" y="520" font-family="system-ui, sans-serif" font-size="24" font-weight="600" fill="#0ea5e9">
    socks5proxies.com
  </text>

  <!-- Bottom accent line -->
  <rect x="0" y="610" width="1200" height="20" fill="url(#accent)"/>
</svg>
